<?xml version="1.0" encoding="UTF-8"?>
<!DOCTYPE svg PUBLIC "-//W3C//DTD SVG 1.1//EN" "http://www.w3.org/Graphics/SVG/1.1/DTD/svg11.dtd">
<!-- Creator: CorelDRAW 2019 (64-Bit) -->
<svg xmlns="http://www.w3.org/2000/svg" xml:space="preserve" width="74.0832mm" height="74.0832mm" version="1.1" style="shape-rendering:geometricPrecision; text-rendering:geometricPrecision; image-rendering:optimizeQuality; fill-rule:evenodd; clip-rule:evenodd"
viewBox="0 0 7408.32 7408.32"
 xmlns:xlink="http://www.w3.org/1999/xlink">
 <defs>
  <style type="text/css">
   <![CDATA[
    .fil0 {fill:white;fill-rule:nonzero}
   ]]>
  </style>
 </defs>
 <g id="Layer_x0020_1">
  <metadata id="CorelCorpID_0Corel-Layer"/>
  <path class="fil0" d="M3660.07 7249.58c1948.35,0 3527.78,-1579.44 3527.78,-3527.78 0,-1948.35 -1579.43,-3527.78 -3527.78,-3527.78 -1948.34,0 -3527.78,1579.43 -3527.78,3527.78 0,1948.34 1579.44,3527.78 3527.78,3527.78zm-1556.51 -5190.38l0 1199.97c182.62,-217.74 401.62,-327.45 655.62,-327.45 130.87,0 248.04,24.91 353.05,74.58 105.42,49.25 184.27,112.46 237.39,189.12 53.54,77.47 89.64,162.28 109.16,255.77 19.5,92.99 29.19,237.84 29.19,434.13l0 1283.15 -567.77 0 0 -1155.58c0,-229.39 -10.24,-374.66 -31.82,-436.36 -21.58,-62.13 -59.49,-110.95 -113.99,-146.9 -54.65,-36.93 -122.72,-55.21 -204.89,-55.21 -93.94,0 -178.47,23.64 -251.78,70.28 -74.86,47.06 -128.81,117.33 -162.84,211.24 -34.73,94.08 -52.01,232.98 -51.32,416.83l-0.69 1095.7 -566.94 0 0 -3109.27 567.63 0zm2235.22 0l0 1199.97c182.77,-217.74 401.6,-327.45 655.6,-327.45 130.35,0 248.21,24.91 353.62,74.58 104.88,49.25 183.73,112.46 236.72,189.12 53.55,77.47 89.78,162.28 109.15,255.77 19.51,92.99 29.21,237.84 29.21,434.13l0 1283.15 -567.09 0 0 -1155.58c0,-229.39 -10.66,-374.66 -32.39,-436.36 -21.55,-62.13 -59.34,-110.95 -114.12,-146.9 -54.08,-36.93 -122.7,-55.21 -204.9,-55.21 -93.94,0 -178.32,23.64 -251.77,70.28 -74.02,47.06 -128.1,117.33 -162.7,211.24 -34.05,94.08 -51.33,232.98 -51.33,416.83l0 1095.7 -567.06 0 0 -3109.27 567.06 0z"/>
 </g>
</svg>
