<?xml version="1.0" encoding="UTF-8"?>
<!DOCTYPE svg PUBLIC "-//W3C//DTD SVG 1.1//EN" "http://www.w3.org/Graphics/SVG/1.1/DTD/svg11.dtd">
<!-- Creator: CorelDRAW 2018 -->
<svg xmlns="http://www.w3.org/2000/svg" xml:space="preserve" width="180mm" height="180mm" version="1.1" style="shape-rendering:geometricPrecision; text-rendering:geometricPrecision; image-rendering:optimizeQuality; fill-rule:evenodd; clip-rule:evenodd"
viewBox="0 0 18000 18000"
 xmlns:xlink="http://www.w3.org/1999/xlink"
 enable-background="new 0 0 504 504">
 <defs>
  <style type="text/css">
   <![CDATA[
    .fil0 {fill:black}
    .fil1 {fill:white}
   ]]>
  </style>
 </defs>
 <g id="Layer_x0020_1">
  <metadata id="CorelCorpID_0Corel-Layer"/>
  <path class="fil0" d="M17441.67 9191.67c-383.33,2437.5 -1129.17,3150 -2450,4787.5 -1320.83,1387.5 -3220.83,3704.17 -5912.5,3575 -2437.5,-383.33 -3150,-1129.17 -4787.5,-2450 -1387.5,-1320.83 -3704.17,-3220.83 -3575,-5912.5 383.33,-2437.5 1129.17,-3150 2450,-4787.5 1320.83,-1387.5 3220.83,-3704.17 5912.5,-3575 2437.5,383.33 3150,1129.17 4787.5,2450 1387.5,1320.83 3704.16,3220.83 3575,5912.5z"/>
  <g id="_824017600">
   <path class="fil1" d="M4208.33 10266.67l-966.66 0 -133.33 500 -866.67 0 1033.33 -3033.33 925 -0.01 1033.33 3033.33 -887.5 0.01 -137.5 -500 0 0zm-179.16 -654.17l-304.17 -1091.67 -300 1091.67 604.17 0 0 0zm854.16 150l808.33 -58.33c20.83,145.83 54.17,254.17 108.33,329.17 87.5,120.83 212.5,183.33 375,183.33 120.83,0 212.5,-29.17 279.17,-95.83 62.5,-62.5 100,-137.5 100,-216.67 0,-79.17 -29.17,-150 -95.83,-212.5 -62.5,-62.5 -208.33,-120.83 -433.33,-175 -370.83,-91.67 -637.5,-216.67 -795.83,-366.67 -158.33,-150 -237.5,-350 -237.5,-583.33 0,-154.17 41.67,-304.17 120.83,-441.67 83.33,-137.5 204.17,-245.83 366.67,-325 162.5,-79.17 387.5,-116.67 675,-116.67 350,0 620.83,70.83 800,216.67 183.33,145.83 291.67,370.83 325,687.5l-800 54.17c-20.83,-137.5 -62.5,-237.5 -133.33,-300 -66.67,-62.5 -162.5,-91.67 -279.17,-91.67 -100,0 -175,20.83 -225,66.67 -50,45.83 -75,104.17 -75,166.67 0,50 20.83,91.67 62.5,129.17 41.67,41.67 137.5,75 283.33,108.33 370.83,87.5 633.33,179.17 795.83,270.83 158.33,91.67 279.17,200 350,337.5 70.83,133.33 108.33,283.33 108.33,450 0,191.67 -50,370.83 -150,537.5 -100,162.5 -233.33,287.5 -408.33,370.83 -175,83.33 -395.83,125 -662.5,125 -466.67,0 -791.67,-100 -966.67,-300 -166.66,-191.67 -270.83,-441.67 -295.83,-750l0 0zm2450 -2029.17l1408.34 0c308.33,0 537.5,79.17 691.67,241.67 150,158.33 229.17,391.67 229.17,687.5 0,308.33 -83.33,545.83 -250,716.67 -166.67,170.83 -420.83,258.33 -762.5,258.33l-462.51 0 0 1129.17 -854.17 0 0 -3033.34 0 0zm850 1291.67l208.34 0c162.5,0 279.17,-29.17 345.83,-95.83 62.5,-62.5 100,-145.83 100,-237.5 0,-91.67 -29.17,-179.17 -87.5,-241.67 -58.33,-62.5 -162.5,-100 -320.83,-100l-241.67 0 0 675 -4.17 0z"/>
   <path class="fil1" d="M10000 10733.33l0 -2587.5 345.83 0 0 366.67c166.67,-283.33 408.33,-425 720.83,-425 137.5,0 262.5,25 375,83.33 112.5,58.33 200,129.17 258.33,220.83 58.33,91.67 95.83,195.83 120.83,320.83 16.67,79.17 20.83,225 20.83,425l0 1587.5 -383.32 0.01 0 -1570.83c0,-179.17 -16.67,-312.5 -45.83,-400 -29.17,-87.5 -83.33,-158.33 -158.33,-212.5 -75,-54.17 -166.67,-79.17 -270.83,-79.17 -162.5,0 -304.17,62.5 -425,179.17 -116.67,116.67 -179.17,341.67 -179.17,675l0 1412.5 -379.17 4.16 0 0zm3979.17 -833.33l395.83 58.33c-62.5,266.67 -179.17,470.83 -345.83,616.67 -170.83,145.83 -387.5,220.83 -650,220.83 -329.17,0 -591.67,-116.67 -787.5,-350 -191.67,-233.33 -291.67,-558.33 -291.67,-979.17 0,-437.5 100,-770.83 291.67,-1012.5 195.83,-237.5 450,-362.5 762.5,-362.5 304.17,0 550,116.67 741.67,354.17 191.67,237.5 287.5,566.67 287.5,991.67 0,25 0,62.5 -4.17,116.67l-1691.67 0c16.67,283.33 83.33,500 212.5,654.17 125,150 283.33,229.17 475,229.17 141.67,0 262.5,-41.67 362.5,-125 104.17,-91.68 183.33,-229.18 241.67,-412.51l0 0zm-1262.5 -708.33l1266.66 0c-16.67,-216.67 -62.5,-379.17 -145.83,-491.67 -120.83,-166.67 -279.17,-254.17 -475,-254.17 -175,0 -320.83,66.67 -445.83,200 -120.84,137.5 -183.34,320.84 -200,545.84l0 0zm2979.16 1150l58.33 387.5c-108.33,25 -204.17,37.5 -287.5,37.5 -141.67,0 -245.83,-25 -320.83,-75 -75,-50 -129.17,-116.67 -162.5,-195.83 -29.17,-79.17 -45.83,-254.17 -45.83,-516.67l0 -1487.5 -1229.17 0 0 -341.67 1225 0 0 -641.67 383.33 -262.5 0 904.17 387.51 0 0 341.67 -387.5 0 0 1508.33c0,125 8.33,204.17 20.83,237.5 16.67,33.33 33.33,62.5 62.5,87.5 29.17,20.83 75,29.17 129.17,29.17 41.66,4.16 100,0 166.66,-12.5l0 0z"/>
   <path class="fil1" d="M9429.17 10062.5c166.67,0 308.33,141.67 308.33,312.5 0,170.83 -137.5,312.5 -308.33,312.5 -166.67,0 -308.33,-141.67 -308.33,-312.5 -0.01,-170.83 137.49,-312.5 308.33,-312.5l0 0z"/>
  </g>
 </g>
</svg>
