<?xml version="1.0" encoding="UTF-8"?>
<!DOCTYPE svg PUBLIC "-//W3C//DTD SVG 1.1//EN" "http://www.w3.org/Graphics/SVG/1.1/DTD/svg11.dtd">
<!-- Creator: CorelDRAW 2018 -->
<svg xmlns="http://www.w3.org/2000/svg" xml:space="preserve" width="517.728mm" height="660.153mm" version="1.1" style="shape-rendering:geometricPrecision; text-rendering:geometricPrecision; image-rendering:optimizeQuality; fill-rule:evenodd; clip-rule:evenodd"
viewBox="0 0 51608.34 65805.61"
 xmlns:xlink="http://www.w3.org/1999/xlink">
 <defs>
  <style type="text/css">
   <![CDATA[
    .fil0 {fill:black}
   ]]>
  </style>
 </defs>
 <g id="Layer_x0020_1">
  <metadata id="CorelCorpID_0Corel-Layer"/>
  <g id="_675136704">
   <path class="fil0" d="M23213.62 0l10774.8 0 0 49384.55c-5519.06,1043.95 -9582,1454.7 -13978.04,1454.7 -13159.99,-13.76 -20010.38,-5893 -20010.38,-17184.51 0,-10879.36 7266.39,-17940.08 18526.56,-17940.08 1747.33,0 3078.45,137.52 4687.06,549.48l0 -16264.13zm377.58 25163.79c-1261.96,-412.16 -2301.87,-549.48 -3633.2,-549.48 -5449.69,0 -8597.52,3324.18 -8597.52,9149.83 0,5671.95 3009.29,8803.79 8528.35,8803.79 1192.39,0 2163.13,-67.15 3702.35,-273.22l0 -17130.92 0.01 0z"/>
   <path class="fil0" d="M51608.34 17040.52l0 24726.15c0,8515.2 -637.86,12610.11 -2509.96,16140.57 -1747.33,3394.15 -4049.2,5534.43 -8805.62,7898.38l-9998.21 -4711.52c4756.42,-2210.46 7058.28,-4163.67 8528.35,-7144.44 1539.03,-3048.12 2024.4,-6578.58 2024.4,-15864.51l-0.01 -21044.42 10761.05 0 0 -0.21zm-11846.86 -17040.52l10774.8 0 0 10948.12 -10774.8 0 0 -10948.12z"/>
  </g>
 </g>
</svg>
