<?xml version="1.0" encoding="UTF-8"?>
<!DOCTYPE svg PUBLIC "-//W3C//DTD SVG 1.1//EN" "http://www.w3.org/Graphics/SVG/1.1/DTD/svg11.dtd">
<!-- Creator: CorelDRAW 2018 -->
<svg xmlns="http://www.w3.org/2000/svg" xml:space="preserve" width="280mm" height="280mm" version="1.1" style="shape-rendering:geometricPrecision; text-rendering:geometricPrecision; image-rendering:optimizeQuality; fill-rule:evenodd; clip-rule:evenodd"
viewBox="0 0 28000 28000"
 xmlns:xlink="http://www.w3.org/1999/xlink">
 <defs>
  <style type="text/css">
   <![CDATA[
    .fil0 {fill:black}
   ]]>
  </style>
 </defs>
 <g id="Layer_x0020_1">
  <metadata id="CorelCorpID_0Corel-Layer"/>
  <path class="fil0" d="M14000 453.33c-7481.09,0 -13546.67,6065.58 -13546.67,13546.67 0,5986.2 3881.12,11062.89 9264.54,12853.78 677.17,124.04 924.4,-294.35 924.4,-651.54 0,-322.47 -12.41,-1390.7 -19.02,-2521.8 -3767,818.54 -4563.24,-1597.42 -4563.24,-1597.42 -616.8,-1564.35 -1504,-1981.07 -1504,-1981.07 -1231.13,-840.05 93.4,-823.52 93.4,-823.52 1360.12,94.24 2076.19,1395.68 2076.19,1395.68 1208.83,2070.36 3171.69,1471.74 3942.29,1124.48 123.14,-873.13 473.71,-1471.74 859.9,-1809.09 -3007.15,-342.29 -6170.56,-1504.81 -6170.56,-6695.62 0,-1480.03 528.35,-2687.16 1393.19,-3635.53 -138.09,-343.96 -604.41,-1722.28 133.93,-3586.74 0,0 1136.07,-363.8 3725.65,1389.06 1079.82,-301.78 2238.22,-450.61 3389.97,-455.59 1150.94,4.97 2310.13,155.44 3391.64,457.23 2584.66,-1754.51 3722.37,-1389.06 3722.37,-1389.06 740.83,1866.13 274.51,3242.79 135.6,3585.1 868.15,948.37 1392.37,2155.53 1392.37,3635.53 0,5204.04 -3168.39,6350 -6186.28,6685.7 487.84,420.03 919.43,1243.54 919.43,2506.93 0,1810.76 -18.2,3270.91 -18.2,3717.4 0,360.49 246.38,782.16 932.66,649.87 5379.32,-1794.2 9257.11,-6870.89 9257.11,-12853.78 0,-7481.09 -6065.58,-13546.67 -13546.67,-13546.67z"/>
 </g>
</svg>
