<?xml version="1.0" encoding="UTF-8"?>
<!DOCTYPE svg PUBLIC "-//W3C//DTD SVG 1.1//EN" "http://www.w3.org/Graphics/SVG/1.1/DTD/svg11.dtd">
<!-- Creator: CorelDRAW 2018 -->
<svg xmlns="http://www.w3.org/2000/svg" xml:space="preserve" width="100mm" height="100mm" version="1.1" style="shape-rendering:geometricPrecision; text-rendering:geometricPrecision; image-rendering:optimizeQuality; fill-rule:evenodd; clip-rule:evenodd"
viewBox="0 0 10000 10000"
 xmlns:xlink="http://www.w3.org/1999/xlink">
 <defs>
  <style type="text/css">
   <![CDATA[
    .fil1 {fill:#FEFEFE;fill-rule:nonzero}
    .fil0 {fill:#1F1B20;fill-rule:nonzero}
   ]]>
  </style>
 </defs>
 <g id="Layer_x0020_1">
  <metadata id="CorelCorpID_0Corel-Layer"/>
  <polygon class="fil0" points="502.08,9497.92 9529.67,9497.92 9529.67,470.33 502.08,470.33 "/>
  <path class="fil1" d="M6312.51 3919.19c46.32,-40.85 69.43,-91.93 69.43,-153.81 0,-56.2 -18.63,-102.37 -55.49,-138.57 -28.33,-28.72 -74.9,-56.76 -139.39,-83.64 -57.39,-24.45 -95.49,-45.51 -113.45,-62.76 -20.07,-18.56 -30.3,-44.59 -30.3,-78 0,-31.01 12.17,-56.27 36.33,-76.13 23.96,-19.47 56.2,-29.32 96.21,-29.32 64.62,0 121.63,17.82 171.34,53.84l0 -121.82c-47.7,-23.6 -101.35,-35.35 -161.47,-35.35 -78.31,0 -142.1,20.75 -191.91,62.59 -49.42,41.52 -74.47,93.73 -74.47,156.28 0,56.02 16.02,101.56 47.98,136.52 26.49,29.5 71.61,57.89 134.9,85.66 61.35,26.95 102.73,50.06 123.93,69.32 21.31,19.01 31.82,43.43 31.82,72.92 0,70.27 -47.94,105.55 -143.75,105.55 -71.72,0 -137.06,-24.2 -196.36,-72.36l0 130c53.27,30.45 115.89,45.48 187.5,45.48 87.17,0 156.6,-22.12 207.15,-66.4z"/>
  <path class="fil1" d="M7449.8 3967.49l120.93 0 0 -652.96 177.09 0 0 -102.44 -177.09 0 0 -116.42c0,-106.72 42.09,-160.06 126.68,-160.06 30.06,0 56.59,6.71 80.36,19.86l0 -109.18c-21.16,-8.68 -50.3,-13.12 -87.59,-13.12 -64.52,0 -118.75,20.32 -163.16,61.17 -51.82,47.06 -77.22,112.25 -77.22,195.3l0 122.45 -128.45 0 0 102.44 128.45 0 0 652.96z"/>
  <path class="fil1" d="M3595.13 3020.35c22.15,0 41,-7.58 56.32,-22.93 15.42,-15.17 23.25,-33.8 23.25,-56.02 0,-21.84 -7.83,-40.46 -23.25,-55.63 -15.32,-15.03 -34.17,-22.44 -56.32,-22.44 -21.6,0 -40.29,7.41 -55.74,22.44 -15.28,15.17 -22.96,33.79 -22.96,55.63 0,23.21 7.68,42.01 22.96,56.8 15.45,14.74 34.14,22.15 55.74,22.15z"/>
  <path class="fil1" d="M4200.75 3985.59c79.83,0 148.98,-17.61 206.9,-53.13l0 -114.94c-57.92,43.39 -119.69,64.95 -185.84,64.95 -78.18,0 -140.23,-25.51 -186.8,-76.7 -46.46,-51.32 -69.85,-120.72 -69.85,-208.73 0,-91.44 25.72,-164.86 76.17,-219.61 48.47,-53.58 111.05,-80.47 187.96,-80.47 63.99,0 123.72,19.55 180.02,59.16l0 -124.1c-50.83,-25.4 -109.04,-38.39 -174.8,-38.39 -119.95,0 -215.49,38.14 -286.44,114.34 -71.3,76.16 -106.71,176.32 -106.71,299.93 0,110.35 32.54,200.41 97.3,270.05 66.58,71.76 153.75,107.64 262.09,107.64z"/>
  <path class="fil1" d="M8500.23 3154.69l31.82 0c22.15,0 37.85,3.81 47.13,11.22 8.25,6.95 12.31,17.32 12.31,32.06 0,29.25 -17.5,43.89 -52.92,43.89l-38.34 0 0 -87.17zm0 117.79l23.49 0c16.55,0 31.68,15.28 45.79,46.18l27.84 61.35 43.6 0 -33.58 -68.16c-13.94,-28.15 -28.19,-43.88 -42.37,-47.31l0 -0.95c20.49,-4.37 36.62,-12.66 47.83,-25.15 11.47,-12.28 17.18,-27.17 17.18,-44.81 0,-19.86 -7.09,-35.8 -21.02,-48.26 -16.51,-14.42 -40.61,-21.44 -72.71,-21.44l-72 0 0 256.08 35.95 0 0 -107.53z"/>
  <path class="fil1" d="M7943.65 3761.4c0,148.48 65.86,222.88 197.77,222.88 46.99,0 84.91,-8.08 113.52,-24.48l0 -103.19c-22.15,16.26 -48.12,24.48 -78.17,24.48 -40.33,0 -68.9,-10.69 -86.36,-32.38 -17.36,-20.99 -25.69,-57.29 -25.69,-107.99l0 -426.19 190.22 0 0 -102.44 -190.22 0 0 -223.56c-42.37,13.79 -82.55,27.02 -121.07,39.19l0 184.37 -129.68 0 0 102.44 129.68 0 0 446.87z"/>
  <path class="fil1" d="M8416.02 3128.19c33.8,-34.04 76.31,-50.97 127.39,-50.97 49.46,0 91.54,16.93 125.87,50.66 34.25,33.76 51.47,76.27 51.47,126.71 0,50.7 -17.22,93.35 -51.79,127.04 -34.54,34.43 -76.48,51.4 -125.55,51.4 -49.5,0 -91.44,-16.76 -125.73,-50.69 -34.68,-34.05 -52.21,-76.8 -52.21,-127.75 0,-50.05 16.82,-92.25 50.55,-126.4zm126.4 325.2c57.11,0 105.09,-19.3 144.04,-57.65 39.09,-38.24 58.49,-85.69 58.49,-142.27 0,-57.65 -19.54,-105.34 -58.88,-143.06 -38.28,-36.72 -85.58,-55.35 -141.99,-55.35 -57.54,0 -105.66,19.41 -144.32,57.89 -38.63,38.85 -57.96,86.01 -57.96,142.14 0,57.4 18.9,104.7 57,142.27 38.03,37.19 85.98,56.03 143.62,56.03z"/>
  <polygon class="fil1" points="3533.26,3967.49 3653.88,3967.49 3653.88,3212.09 3533.26,3212.09 "/>
  <path class="fil1" d="M5234.49 3370.66c45.09,-49.11 105.38,-73.7 180.55,-73.7 76.24,0 135.51,24.31 177.91,72.92 43.53,50.7 65.41,124.5 65.41,221.23 0,92.36 -20.32,163.58 -61.32,214.03 -41.7,51.47 -102.51,77.33 -182,77.33 -76.83,0 -138.04,-25.44 -183.55,-76.41 -45.79,-50.7 -68.5,-121.61 -68.5,-212.06 0,-96.34 23.81,-170.67 71.5,-223.34zm171.63 614.93c114.9,0 206.48,-36.41 274.57,-109.15 67.59,-72.53 101.6,-169.16 101.6,-289.56 0,-122.42 -31.68,-218.62 -94.55,-288.61 -63.43,-69.53 -151.41,-104.64 -263.98,-104.64 -114.51,0 -205.78,33.59 -274.15,100.23 -73.87,71.97 -110.66,173.39 -110.66,304.66 0,115.18 32.52,207.82 97.29,277.92 66.29,72.74 156.46,109.15 269.88,109.15z"/>
  <path class="fil1" d="M6625.43 3594c0,-96.34 23.6,-170.67 71.15,-223.34 45.4,-49.11 105.69,-73.7 180.8,-73.7 76.13,0 135.54,24.31 177.8,72.92 43.71,50.7 65.58,124.5 65.58,221.23 0,92.36 -20.35,163.58 -61.31,214.03 -41.7,51.47 -102.41,77.33 -182.07,77.33 -76.62,0 -137.87,-25.44 -183.9,-76.41 -45.37,-50.7 -68.05,-121.61 -68.05,-212.06zm517.45 282.44c67.8,-72.53 102.13,-169.16 102.13,-289.56 0,-122.42 -32,-218.62 -95,-288.61 -63.29,-69.53 -151.13,-104.64 -263.71,-104.64 -114.68,0 -206.23,33.59 -274.39,100.23 -73.51,71.97 -110.59,173.39 -110.59,304.66 0,115.18 32.56,207.82 97.33,277.92 66.25,72.74 156.46,109.15 270.02,109.15 115.04,0 206.48,-36.41 274.21,-109.15z"/>
  <polygon class="fil1" points="5365.16,5826.34 6366.87,5826.34 6366.87,5532.45 5365.16,5532.45 5365.16,4609.93 6446.28,4609.93 6446.28,4316.03 5040.32,4316.03 5040.32,7089.28 6510.1,7089.28 6510.1,6795.39 5365.16,6795.39 "/>
  <polygon class="fil1" points="6815.33,4609.93 7615.71,4609.93 7615.71,7089.28 7940.65,7089.28 7940.65,4609.93 8739.45,4609.93 8739.45,4316.03 6815.33,4316.03 "/>
  <path class="fil1" d="M1500.63 6696.82c-59.16,0 -109.47,21.03 -150.74,63.79 -41.4,42.51 -61.88,93.94 -61.88,154.72 0,59.2 20.48,110.42 61.88,153.64 41.27,43.15 91.58,64.88 150.74,64.88 60.67,0 112.32,-21.73 154.82,-64.88 42.63,-43.22 63.81,-94.44 63.81,-153.64 0,-59.27 -21.18,-110.69 -63.81,-153.84 -42.5,-43.35 -94.15,-64.67 -154.82,-64.67z"/>
  <path class="fil1" d="M4796.38 3240.2c-36.73,30.06 -64.07,72.43 -81.81,127.64l-3.03 0 0 -155.75 -120.8 0 0 755.4 120.8 0 0 -385.24c0,-87.59 18.87,-156.1 56.83,-205.66 33.48,-44.21 74.75,-66.26 123.82,-66.26 40.43,0 71.05,7.94 92.36,24.27l0 -125.41c-16.37,-6.81 -40.29,-10.23 -72.39,-10.23 -42.79,0 -81.46,13.76 -115.78,41.24z"/>
  <polygon class="fil1" points="2307.11,3052.17 2309.74,3052.17 2702.69,3967.49 2763.22,3967.49 3155.57,3052.17 3158.43,3052.17 3148.04,3967.49 3272.11,3967.49 3272.11,2909.79 3116.76,2909.79 2734.67,3773.99 2729.49,3773.99 2356.99,2909.79 2193.28,2909.79 2193.28,3967.49 2312.85,3967.49 "/>
  <polygon class="fil1" points="4103.21,6658.26 2614.31,4316.03 2192.47,4316.03 2192.47,7089.28 2517.54,7089.28 2517.54,4710.54 4031.87,7089.28 4426.21,7089.28 4426.21,4316.03 4103.21,4316.03 "/>
 </g>
</svg>
