<?xml version="1.0" encoding="UTF-8"?><svg xmlns="http://www.w3.org/2000/svg" viewBox="0 0 50 50"><path d="M39.72 3l-.251.01c-1.997.072-4.168.973-6.016 2.41-1.126 1.016-3.189 2.962-3.43 6.83-.015.244-.023.497-.023.756 0 .329.03.658.086.992.199 1.187.724 2.419 1.396 3.797.375.769.786 1.61 1.196 2.557 2.299 5.309 3.075 8.91 3.304 11.119 5.012-4.895 9.62-10.24 10.012-16.737.128-5.189-2.246-9.75-6.047-11.623L39.721 3zM11.5 6c-2.238 0-4.598.46-6.822 1.332l-.582.229-.05.625C4.017 8.57 4 8.967 4 9.375c.003 5.51 2.93 12.188 11.115 14.398 1.007.295 1.932.557 2.801.803 2.295.651 4.109 1.167 6.059 1.883l.062.025c.152.051.306.106.461.16 3.01 1.064 6.663 2.844 9.488 4.905-.224-1.983-.956-5.355-3.142-10.404-.028-.065-.056-.12-.084-.184l-.006.002C26.642 11.668 20.374 8.159 18.35 7.23 16.13 6.434 13.809 6 11.5 6zm12.936 22.75a35.958 35.958 0 0 1-1.512 2.035c-1.593 2.016-4.129 5.955-4.772 11.213a20.3 20.3 0 0 0 .008 5.03l.125.972.979-.11c5.389-.596 9.063-2.783 11.507-5.46 2.451-3.141 3.069-6.51 3.208-8.373-2.54-2.155-6.366-4.122-9.543-5.307z"/><metadata><rdf:RDF xmlns:rdf="http://www.w3.org/1999/02/22-rdf-syntax-ns#" xmlns:rdfs="http://www.w3.org/2000/01/rdf-schema#" xmlns:dc="http://purl.org/dc/elements/1.1/"><rdf:Description about="https://iconscout.com/legal#licenses" dc:title="yii,framework,filled" dc:description="yii,framework,filled" dc:publisher="Iconscout" dc:date="2017-12-09" dc:format="image/svg+xml" dc:language="en"><dc:creator><rdf:Bag><rdf:li>Icons8</rdf:li></rdf:Bag></dc:creator></rdf:Description></rdf:RDF></metadata></svg>